<svg id="Ñëîé_2" data-name="Ñëîé 2" xmlns="http://www.w3.org/2000/svg" viewBox="0 0 502.49 586.96"><defs><style>.cls-1{fill:#3d2c45;}.cls-2{fill:#4e466a;}.cls-3{fill:#5d507d;}.cls-4{fill:#c9d5e2;}</style></defs><path class="cls-1" d="M136.36,479.51s0,33.29,5.87,43.08,54.83,21.53,109.65,21.53,94-9.79,103.78-19.58,9.79-43.07,9.79-43.07Z"/><path class="cls-1" d="M167.69,50.69s35.6-7.86,82.41-7.86a495.32,495.32,0,0,1,86.34,7.86s-2.32,64.62-84.56,70.49S167.69,50.69,167.69,50.69Z"/><path class="cls-1" d="M50.2,479.76s4.32,23.77,6.48,34.57,57.23-.05,56.18-10.8c-2-20.11-7.83-49.48-7.83-49.48Z"/><path class="cls-2" d="M202.93,91.81s-56.78,0-92,31.33S48.24,252.37,40.41,320.91s-.19,156.25,9.79,176.22c3.92,7.83,54.83,0,58.74-5.87,12.39-18.58,1.29-54.4,3.92-117.49,2-47,17.62-94,17.62-94s5.88,54.82,2,101.82-15.66,95.94,11.75,117.48,107.69,17.62,107.69,17.62V107.48Z"/><path class="cls-1" d="M452.29,479.76s-4.32,23.77-6.48,34.57-57.23-.05-56.18-10.8c2-20.11,7.83-49.48,7.83-49.48Z"/><path class="cls-2" d="M462.08,320.91c-7.83-68.54-35.24-166.44-70.49-197.77s-92-31.33-92-31.33l-48.95,15.67V516.71s80.28,3.92,107.69-17.62S374,428.6,370.05,381.61s2-101.82,2-101.82,15.66,47,17.62,94c2.63,63.09-8.47,98.91,3.92,117.49,3.91,5.87,54.82,13.7,58.74,5.87C462.27,477.16,469.91,389.44,462.08,320.91Z"/><path class="cls-3" d="M250.2,42.84Z"/><path class="cls-3" d="M250.1,42.83h0Z"/><path class="cls-3" d="M250,42.84Z"/><path class="cls-3" d="M250.1,42.83h0Z"/><path class="cls-3" d="M354.06,68.32c0-13.71-17.62-17.63-17.62-17.63-5.78,17.35-59.1,52.87-84.38,52.87-27.59,0-78.59-35.52-84.37-52.87,0,0-17.63,3.92-17.63,17.63S126.57,84,134.4,103.56c7.39,18.49,109.5,41.55,120.51,42.19,11-.64,107.42-23.7,114.82-42.19C377.56,84,354.06,82,354.06,68.32Z"/><path class="cls-3" d="M361.46,437.54c-61.52-14.3-52.73-91.18-52.73-91.18h-109s8.79,76.88-52.73,91.18c0,0-6.59,28.6,17.58,42.91,11.54,6.82,48.6,9.57,87.07,9.81v0h5.21v0c38.47-.24,75.54-3,87.07-9.81C368.05,466.14,361.46,437.54,361.46,437.54Z"/><path class="cls-2" d="M253.39,484.4h-1.76c-43.6-.27-75-3.63-84.11-9-14.69-8.69-16-23.64-15.46-31.77l.09-1.35,1.29-.39c52-15.84,53-75.78,52.67-87.63l-.06-2h96.31l-.06,2C302,366.1,303,426,355,441.88l1.29.39.09,1.35c.53,8.13-.77,23.07-15.46,31.77-9.07,5.37-40.51,8.73-84.11,9Zm-97.48-39.19c-.24,7.44,1.47,19.63,13.61,26.81,6.25,3.7,31.52,8.14,82.14,8.45h5.1c50.61-.31,75.88-4.75,82.14-8.45,12.13-7.18,13.84-19.37,13.61-26.81-40.57-13.14-54.56-54.1-54.16-89.06H210.06C210.47,391.11,196.47,432.07,155.91,445.21Z"/><path class="cls-3" d="M132.42,280.07l-3.87-.57c.13-.92,13.4-92.07-5.76-140l3.64-1.45C146,187,133,276.3,132.42,280.07Z"/><path class="cls-3" d="M370.14,280.07c-.57-3.77-13.56-93.11,6-142l3.63,1.45c-19.15,47.9-5.89,139-5.75,140Z"/><path class="cls-4" d="M232.3,126.08a6.86,6.86,0,1,1,6.86-6.85A6.86,6.86,0,0,1,232.3,126.08Zm0-11.75a4.9,4.9,0,1,0,4.9,4.9A4.9,4.9,0,0,0,232.3,114.33Z"/><path class="cls-4" d="M271.46,126.08a6.86,6.86,0,1,1,6.86-6.85A6.86,6.86,0,0,1,271.46,126.08Zm0-11.75a4.9,4.9,0,1,0,4.9,4.9A4.9,4.9,0,0,0,271.46,114.33Z"/><path class="cls-1" d="M232.3,249a2.46,2.46,0,0,1-2.46-2.46V119.23a2.47,2.47,0,1,1,4.93,0V246.5A2.47,2.47,0,0,1,232.3,249Z"/><path class="cls-1" d="M271.46,225.23a2.22,2.22,0,0,1-2.22-2.23V119.23a2.23,2.23,0,1,1,4.45,0V223A2.23,2.23,0,0,1,271.46,225.23Z"/><path class="cls-4" d="M232.3,262.16a2,2,0,0,1-2-2V234.75a2,2,0,1,1,3.92,0v25.46A2,2,0,0,1,232.3,262.16Z"/><path class="cls-4" d="M271.46,234.75a2,2,0,0,1-1.95-2V207.34a2,2,0,1,1,3.91,0v25.45A2,2,0,0,1,271.46,234.75Z"/><path class="cls-2" d="M291.19,109.77a2,2,0,0,1-.78-3.76,99.52,99.52,0,0,0,44.65-38.33,2,2,0,1,1,3.32,2.07A103.45,103.45,0,0,1,292,109.61,1.9,1.9,0,0,1,291.19,109.77Z"/><path class="cls-2" d="M295.16,121.34H295a2,2,0,0,1,0-3.91,1.33,1.33,0,0,1,.2,0A66.47,66.47,0,0,0,342.1,97.85a2,2,0,0,1,2.79,2.76A70.46,70.46,0,0,1,295.16,121.34Z"/><path class="cls-2" d="M212.3,109.77a1.93,1.93,0,0,1-.77-.16,103.45,103.45,0,0,1-46.42-39.86,2,2,0,1,1,3.32-2.07A99.52,99.52,0,0,0,213.08,106a2,2,0,0,1-.78,3.76Z"/><path class="cls-2" d="M208.33,121.34a70.42,70.42,0,0,1-49.72-20.73,2,2,0,0,1,2.78-2.76,66.47,66.47,0,0,0,46.94,19.58c.07,0,.17,0,.2,0a2,2,0,1,1,0,3.91Z"/></svg>