<svg id="Ñëîé_2" data-name="Ñëîé 2" xmlns="http://www.w3.org/2000/svg" viewBox="0 0 502.49 586.96"><defs><style>.cls-1{fill:#d41c3a;}.cls-2{fill:#9d0b3a;}.cls-3{fill:#f23051;}</style></defs><path class="cls-1" d="M136.14,433.91s0,33.29,5.88,43.08,54.82,21.54,109.65,21.54,94-9.79,103.78-19.58,9.79-43.08,9.79-43.08Z"/><path class="cls-1" d="M57.82,494.61s0,25.46,13.71,27.41,27.41-1.95,31.32-7.83,2-21.54,2-21.54Z"/><path class="cls-1" d="M440.13,492.65s0,25.46-13.71,27.42-27.41-2-31.32-7.84-2-21.54-2-21.54Z"/><path class="cls-2" d="M210.18,69.84s36.89-12.19,82.82,0c0,0-.1,53.08-43.29,54.7C213.3,125.9,210.18,69.84,210.18,69.84Z"/><path class="cls-3" d="M457.26,338c-7.83-68.54-29.37-180.15-64.61-211.48s-92-31.32-92-31.32c.07-21.72-7.83-25.46-7.83-25.46-2,21.54-41.12,41.12-41.12,41.12s-39.16-19.58-41.12-41.12c0,0-8.83,3.64-7.83,25.46,0,0-56.79,0-92,31.32S53.9,269.43,46.07,338,36.28,477,50,494.61s45,13.71,56.78,2c13.71-13.71-2-92,5.88-154.69S134.18,244,134.18,244s7.84,94,3.92,141-21.54,52.87,5.87,74.41S251.67,477,251.67,477v-.24c15,.52,83.35,1.74,107.69-17.38,27.41-21.54,9.79-27.42,5.88-74.41s3.91-141,3.91-141,13.71,35.24,21.54,97.9-11.75,141,2,154.69,45,13.71,58.74-3.92S465.1,406.5,457.26,338Z"/><path class="cls-1" d="M368,243.39c-5.06-42-1.31-83,11.47-125.21l3,.91c-12.65,41.8-16.37,82.34-11.36,123.92Z"/><path class="cls-1" d="M136.47,244.94l-3.09-.37c5.33-44.26,1.9-88.3-9.93-127.36l3-.9C138.38,155.78,141.86,200.26,136.47,244.94Z"/><path class="cls-1" d="M292.79,69.71c-2,21.54-42.64,40.1-42.64,40.1s-37.64-18.56-39.6-40.1c0,0-9.42,3.35-7.83,25.46,0,0,13.21,37,46.91,37.74,34.83.78,51-37.74,51-37.74C301.18,72.37,292.79,69.71,292.79,69.71Z"/><path class="cls-2" d="M249.45,478.54a1.55,1.55,0,0,1-1.56-1.55V108.87a1.56,1.56,0,0,1,3.12,0V477A1.55,1.55,0,0,1,249.45,478.54Z"/></svg>