<svg id="Ñëîé_2" data-name="Ñëîé 2" xmlns="http://www.w3.org/2000/svg" viewBox="0 0 502.49 586.96"><defs><style>.cls-1{fill:#4d75b7;}.cls-2{fill:#e2dad8;}.cls-3{opacity:0.53;}.cls-4{fill:#3c2941;}.cls-5{fill:#4a89d6;}.cls-6{fill:#b9c5df;}</style></defs><path class="cls-1" d="M210.38,96a165.35,165.35,0,0,1,42.9-5.86c23.5,0,39.16,5.86,39.16,5.86l-39.16,46Z"/><path class="cls-2" d="M372.9,496.46s-4.1-38.18-8-85.18,3.91-141,3.91-141,2.94,7.55,6.87,21.86l72.61-24.79c-17.62-49.93-34.81-95.73-56-114.55-35.24-31.33-92-31.33-92-31.33C295.55,104.85,292.44,96,292.44,96c-1.91,21-39.19,40.15-41,41.08-1.84-.93-39.12-20.07-41-41.08,0,0-3.12,8.82-7.83,25.46,0,0-56.79,0-92,31.33-21.17,18.82-38.36,64.62-56,114.55l72.62,24.79c3.93-14.31,6.86-21.86,6.86-21.86s7.84,94,3.92,141-6.05,85.51-6.05,85.51Z"/><g class="cls-3"><path class="cls-4" d="M369,271.29a1,1,0,0,1-1-.87c-5.58-46.31-2.52-89.25,9.1-127.62a1,1,0,1,1,1.87.56c-11.54,38.12-14.58,80.79-9,126.83a1,1,0,0,1-.85,1.09Z"/></g><g class="cls-3"><path class="cls-4" d="M133.84,271.29h-.12a1,1,0,0,1-.86-1.09c5.55-46,2.52-88.71-9-126.83a1,1,0,0,1,.66-1.22,1,1,0,0,1,1.22.66c11.62,38.37,14.68,81.31,9.1,127.62A1,1,0,0,1,133.84,271.29Z"/></g><path class="cls-5" d="M248.38,186.11A3.92,3.92,0,1,1,252.3,190,3.93,3.93,0,0,1,248.38,186.11Z"/><path class="cls-5" d="M60.84,264.17a3.92,3.92,0,1,1,3.92,3.91A3.92,3.92,0,0,1,60.84,264.17Z"/><path class="cls-5" d="M248.38,224.43a3.92,3.92,0,1,1,3.92,3.92A3.92,3.92,0,0,1,248.38,224.43Z"/><path class="cls-5" d="M248.38,262.76a3.92,3.92,0,1,1,3.92,3.91A3.92,3.92,0,0,1,248.38,262.76Z"/><path class="cls-5" d="M248.38,301.08A3.92,3.92,0,1,1,252.3,305,3.92,3.92,0,0,1,248.38,301.08Z"/><path class="cls-5" d="M248.38,339.4a3.92,3.92,0,1,1,3.92,3.92A3.93,3.93,0,0,1,248.38,339.4Z"/><path class="cls-5" d="M248.38,377.72a3.92,3.92,0,1,1,3.92,3.92A3.92,3.92,0,0,1,248.38,377.72Z"/><path class="cls-5" d="M248.38,416A3.92,3.92,0,1,1,252.3,420,3.92,3.92,0,0,1,248.38,416Z"/><path class="cls-5" d="M248.38,454.37a3.92,3.92,0,1,1,3.92,3.91A3.92,3.92,0,0,1,248.38,454.37Z"/><g class="cls-3"><path class="cls-4" d="M263,496.46a1,1,0,0,1-1-1V129.33a1,1,0,0,1,2,0V495.49A1,1,0,0,1,263,496.46Z"/></g><g class="cls-3"><path class="cls-4" d="M241.45,496.46a1,1,0,0,1-1-1V129.33a1,1,0,0,1,2,0V495.49A1,1,0,0,1,241.45,496.46Z"/></g><path class="cls-6" d="M292.44,96l-41.12,41.12,19.76,24.49s28.39-20.56,32.31-40.14Z"/><path class="cls-6" d="M210.38,96l41.12,41.12-19.76,24.49s-28.39-20.56-32.31-40.14Z"/><polygon class="cls-6" points="375.67 292.16 448.28 267.37 443.65 254.83 372.02 279.22 375.67 292.16"/><polygon class="cls-6" points="126.83 292.16 54.21 267.37 59.05 254.83 131.19 279.74 126.83 292.16"/></svg>