<svg id="Ñëîé_2" data-name="Ñëîé 2" xmlns="http://www.w3.org/2000/svg" viewBox="0 0 502.49 586.96"><defs><style>.cls-1{fill:#0097dd;}.cls-2{fill:#8a81af;}.cls-3{opacity:0.53;}.cls-4{fill:#3c2941;}</style></defs><path class="cls-1" d="M377.26,467l-8.17-216.52L389,296.28l79.3-46.56S424,149.81,382.87,121.87,285,93.21,285,93.21s.71,31.33-37.33,30.09c-36.41-1.2-37.08-30.09-37.08-30.09s-50.9.73-92,28.66S33.63,249.72,33.63,249.72l79.3,46.56,19.92-45.8L128.59,467s30.32,26.75,124.78,26.75S377.26,467,377.26,467Z"/><path class="cls-2" d="M295.22,93.82c-6.4-.56-10.25-.61-10.25-.61s.71,31.33-37.33,30.09c-36.41-1.2-37.08-30.09-37.08-30.09s-4.31.06-11.41.83c1.66,13.91,9.88,39.58,48,39.58C286.42,133.62,293.91,107,295.22,93.82Z"/><path class="cls-2" d="M33.63,249.72l79.3,46.56,4.78-11L38.49,239.16C35.38,245.74,33.63,249.72,33.63,249.72Z"/><path class="cls-2" d="M468.86,249.72,389.23,297l-4.67-10.9L463.19,239A116.46,116.46,0,0,0,468.86,249.72Z"/><g class="cls-3"><path class="cls-4" d="M132.85,251.46h0a1,1,0,0,1-.93-1l4.61-105.11a1,1,0,0,1,1-.94,1,1,0,0,1,.94,1l-4.62,105.12A1,1,0,0,1,132.85,251.46Z"/></g><g class="cls-3"><path class="cls-4" d="M369.09,251.46a1,1,0,0,1-1-.89L358.4,145.46a1,1,0,1,1,2-.18l9.71,105.11a1,1,0,0,1-.88,1.07Z"/></g><g class="cls-3"><path class="cls-4" d="M247.11,134.6c-46.08,0-48.8-39.14-48.82-39.54a1,1,0,0,1,.92-1,1,1,0,0,1,1,.92c.09,1.54,2.67,37.69,46.87,37.69S294,96.49,294.05,95a1,1,0,0,1,1-.92,1,1,0,0,1,.92,1C296,95.46,293.19,134.6,247.11,134.6Z"/></g></svg>