<svg xmlns="http://www.w3.org/2000/svg" xmlns:xlink="http://www.w3.org/1999/xlink" viewBox="0 0 2475 1650"><defs><style>.cls-1{fill:url(#linear-gradient);}.cls-2{fill:#bdd0fb;}.cls-3{fill:#dce5fe;}.cls-4{fill:#91b3fa;}.cls-5{fill:#7d97f4;}.cls-6{fill:url(#linear-gradient-2);}.cls-7{fill:url(#linear-gradient-3);}.cls-8{fill:url(#linear-gradient-4);}.cls-9{fill:url(#linear-gradient-5);}.cls-10{fill:url(#linear-gradient-6);}.cls-11{fill:url(#linear-gradient-7);}.cls-12{fill:url(#linear-gradient-8);}.cls-13{fill:url(#linear-gradient-9);}.cls-14{fill:url(#linear-gradient-10);}.cls-15{fill:url(#linear-gradient-11);}.cls-16{fill:url(#linear-gradient-12);}.cls-17{fill:url(#linear-gradient-13);}.cls-18{fill:url(#linear-gradient-14);}.cls-19{fill:url(#linear-gradient-15);}.cls-20{fill:url(#linear-gradient-16);}.cls-21{fill:url(#linear-gradient-17);}.cls-22{fill:url(#linear-gradient-18);}.cls-23{fill:url(#linear-gradient-19);}.cls-24{fill:url(#linear-gradient-20);}.cls-25{fill:url(#linear-gradient-21);}.cls-26{fill:url(#linear-gradient-22);}.cls-27{fill:url(#linear-gradient-23);}.cls-28{fill:url(#_27);}.cls-29{fill:url(#linear-gradient-24);}.cls-30{fill:url(#linear-gradient-25);}.cls-31{fill:url(#linear-gradient-26);}.cls-32{fill:url(#linear-gradient-27);}.cls-33{fill:url(#linear-gradient-28);}.cls-34{fill:url(#linear-gradient-29);}.cls-35{fill:url(#linear-gradient-30);}.cls-36{fill:url(#linear-gradient-31);}.cls-37{fill:url(#linear-gradient-32);}.cls-38{fill:url(#linear-gradient-33);}.cls-39{fill:url(#linear-gradient-34);}.cls-40{fill:url(#linear-gradient-35);}.cls-41{fill:url(#linear-gradient-36);}.cls-42{fill:url(#linear-gradient-37);}.cls-43{fill:url(#linear-gradient-38);}.cls-44{fill:url(#linear-gradient-39);}.cls-45{fill:url(#linear-gradient-40);}.cls-46{fill:url(#linear-gradient-41);}.cls-47{fill:url(#linear-gradient-42);}.cls-48{fill:url(#linear-gradient-43);}.cls-49{fill:url(#linear-gradient-44);}.cls-50{fill:#fff;opacity:0.65;}.cls-51{fill:url(#linear-gradient-45);}.cls-52{fill:url(#linear-gradient-46);}.cls-53{fill:url(#linear-gradient-47);}.cls-54{fill:url(#linear-gradient-48);}.cls-55{fill:url(#linear-gradient-49);}.cls-56{fill:url(#linear-gradient-50);}.cls-57{fill:url(#linear-gradient-51);}.cls-58{fill:url(#linear-gradient-52);}.cls-59{fill:url(#linear-gradient-53);}.cls-60{fill:url(#linear-gradient-54);}.cls-61{fill:url(#linear-gradient-55);}.cls-62{fill:url(#linear-gradient-56);}.cls-63{fill:url(#linear-gradient-57);}.cls-64{fill:url(#linear-gradient-58);}.cls-65{fill:url(#linear-gradient-59);}.cls-66{fill:url(#linear-gradient-60);}.cls-67{fill:url(#linear-gradient-61);}.cls-68{fill:url(#linear-gradient-62);}.cls-69{fill:url(#linear-gradient-63);}.cls-70{fill:url(#linear-gradient-64);}.cls-71{fill:url(#linear-gradient-65);}.cls-72{fill:url(#linear-gradient-66);}.cls-73{fill:url(#linear-gradient-67);}.cls-74{fill:url(#linear-gradient-68);}.cls-75{fill:url(#linear-gradient-69);}.cls-76{fill:url(#linear-gradient-70);}.cls-77{fill:url(#linear-gradient-71);}.cls-78{fill:url(#linear-gradient-72);}.cls-79{fill:url(#linear-gradient-73);}.cls-80{fill:url(#linear-gradient-74);}.cls-81{fill:url(#linear-gradient-75);}.cls-82{fill:url(#linear-gradient-76);}.cls-83{fill:url(#linear-gradient-77);}.cls-84{fill:url(#linear-gradient-78);}.cls-85{fill:url(#linear-gradient-79);}.cls-86{fill:url(#linear-gradient-80);}.cls-87{fill:url(#linear-gradient-81);}.cls-88{fill:url(#linear-gradient-82);}.cls-89{fill:url(#linear-gradient-83);}</style><linearGradient id="linear-gradient" x1="41.72" y1="770.06" x2="2263.05" y2="770.06" gradientUnits="userSpaceOnUse"><stop offset="0" stop-color="#dae3fe"/><stop offset="1" stop-color="#e9effd"/></linearGradient><linearGradient id="linear-gradient-2" x1="502.88" y1="1597.21" x2="564.74" y2="1597.21" gradientTransform="translate(2063.24 892.31) rotate(83.74)" gradientUnits="userSpaceOnUse"><stop offset="0" stop-color="#09005d"/><stop offset="1" stop-color="#1a0f91"/></linearGradient><linearGradient id="linear-gradient-3" x1="531.23" y1="1510.87" x2="531.23" y2="1785.37" gradientTransform="translate(1285 92.18) rotate(45)" gradientUnits="userSpaceOnUse"><stop offset="0" stop-color="#4042e2"/><stop offset="1" stop-color="#4f52ff"/></linearGradient><linearGradient id="linear-gradient-4" x1="863.73" y1="1597.21" x2="925.59" y2="1597.21" gradientTransform="translate(2327.95 458.26) rotate(80.78)" xlink:href="#linear-gradient-2"/><linearGradient id="linear-gradient-5" x1="892.09" y1="1510.87" x2="892.09" y2="1785.37" gradientTransform="translate(1390.69 -162.99) rotate(45)" xlink:href="#linear-gradient-3"/><linearGradient id="linear-gradient-6" x1="1625.4" y1="1598.5" x2="1687.26" y2="1598.5" gradientTransform="translate(1615.44 -703.01) rotate(45)" xlink:href="#linear-gradient-2"/><linearGradient id="linear-gradient-7" x1="1653.75" y1="1512.16" x2="1653.75" y2="1786.66" gradientTransform="translate(1614.68 -701.19) rotate(45)" xlink:href="#linear-gradient-3"/><linearGradient id="linear-gradient-8" x1="1986.25" y1="1598.5" x2="2048.11" y2="1598.5" gradientTransform="translate(3287.96 -639.66) rotate(81.19)" xlink:href="#linear-gradient-2"/><linearGradient id="linear-gradient-9" x1="2014.61" y1="1512.16" x2="2014.61" y2="1786.66" gradientTransform="translate(1697.79 -953.65) rotate(44.49)" xlink:href="#linear-gradient-3"/><linearGradient id="linear-gradient-10" x1="1032.84" y1="433.43" x2="1024.56" y2="340.69" gradientUnits="userSpaceOnUse"><stop offset="0" stop-color="#53d8ff"/><stop offset="1" stop-color="#3840f7"/></linearGradient><linearGradient id="linear-gradient-11" x1="1074.01" y1="1201.59" x2="1083.4" y2="1981.27" gradientUnits="userSpaceOnUse"><stop offset="0" stop-color="#fe7062"/><stop offset="1" stop-color="#ff928e"/></linearGradient><linearGradient id="linear-gradient-12" x1="1166.02" y1="-176.52" x2="1128.44" y2="142.86" gradientTransform="matrix(1, 0, 0, 1, 0, 0)" xlink:href="#linear-gradient-2"/><linearGradient id="linear-gradient-13" x1="1009.18" y1="818.01" x2="1013.05" y2="1037.1" gradientUnits="userSpaceOnUse"><stop offset="0" stop-color="#e1473d"/><stop offset="1" stop-color="#e9605a"/></linearGradient><linearGradient id="linear-gradient-14" x1="1108.22" y1="816.26" x2="1112.09" y2="1035.35" xlink:href="#linear-gradient-13"/><linearGradient id="linear-gradient-15" x1="862.46" y1="572.8" x2="645.95" y2="162.11" gradientTransform="matrix(1, 0, 0, 1, 0, 0)" xlink:href="#linear-gradient-3"/><linearGradient id="linear-gradient-16" x1="770.36" y1="-62.74" x2="751.57" y2="153.31" gradientTransform="matrix(1, 0, 0, 1, 0, 0)" xlink:href="#linear-gradient-2"/><linearGradient id="linear-gradient-17" x1="1705.28" y1="-139.96" x2="1648.92" y2="165.33" gradientTransform="matrix(1, 0, 0, 1, 0, 0)" xlink:href="#linear-gradient-2"/><linearGradient id="linear-gradient-18" x1="1674.31" y1="-145.68" x2="1617.95" y2="159.62" gradientTransform="matrix(1, 0, 0, 1, 0, 0)" xlink:href="#linear-gradient-2"/><linearGradient id="linear-gradient-19" x1="1592.82" y1="535.19" x2="1536.46" y2="1394.72" xlink:href="#linear-gradient-11"/><linearGradient id="linear-gradient-20" x1="1680.94" y1="540.97" x2="1624.58" y2="1400.5" xlink:href="#linear-gradient-11"/><linearGradient id="linear-gradient-21" x1="1545.62" y1="770.24" x2="1648.73" y2="527.95" xlink:href="#linear-gradient-13"/><linearGradient id="linear-gradient-22" x1="1407.31" y1="631.34" x2="1444.89" y2="1077.54" gradientTransform="matrix(1, 0, 0, 1, 0, 0)" xlink:href="#linear-gradient-3"/><linearGradient id="linear-gradient-23" x1="1479.89" y1="-181.57" x2="1423.52" y2="123.72" gradientTransform="matrix(1, 0, 0, 1, 0, 0)" xlink:href="#linear-gradient-2"/><linearGradient id="_27" x1="1437.6" y1="1368.53" x2="1422.14" y2="1265.43" gradientUnits="userSpaceOnUse"><stop offset="1" stop-color="#09005d"/><stop offset="1" stop-color="#1a0f91"/></linearGradient><linearGradient id="linear-gradient-24" x1="1439.43" y1="317.99" x2="1604.39" y2="-599.61" xlink:href="#linear-gradient-11"/><linearGradient id="linear-gradient-25" x1="1247.62" y1="938.02" x2="1263.09" y2="334.88" gradientTransform="matrix(1, 0, 0, 1, 0, 0)" xlink:href="#linear-gradient-2"/><linearGradient id="linear-gradient-26" x1="1514.63" y1="944.87" x2="1530.1" y2="341.72" gradientTransform="matrix(1, 0, 0, 1, 0, 0)" xlink:href="#linear-gradient-2"/><linearGradient id="linear-gradient-27" x1="1545.87" y1="-20.74" x2="1414.36" y2="472.43" gradientTransform="matrix(1, 0, 0, 1, 0, 0)" xlink:href="#linear-gradient-2"/><linearGradient id="linear-gradient-28" x1="1716.82" y1="24.85" x2="1585.31" y2="518.02" gradientTransform="matrix(1, 0, 0, 1, 0, 0)" xlink:href="#linear-gradient-2"/><linearGradient id="linear-gradient-29" x1="1475.99" y1="803.72" x2="1414.13" y2="973.84" gradientTransform="translate(1064.64 -749.66) rotate(45)" xlink:href="#linear-gradient-11"/><linearGradient id="linear-gradient-30" x1="1418.18" y1="-61.6" x2="1385.3" y2="516.11" gradientTransform="matrix(1, 0, 0, 1, 0, 0)" xlink:href="#linear-gradient-3"/><linearGradient id="linear-gradient-31" x1="3906.71" y1="997.34" x2="3859.36" y2="1142.48" gradientTransform="translate(-1915.59)" gradientUnits="userSpaceOnUse"><stop offset="0" stop-color="#ff928e"/><stop offset="1" stop-color="#feb3b1"/></linearGradient><linearGradient id="linear-gradient-32" x1="1835.98" y1="770.83" x2="2081.87" y2="944.5" gradientTransform="matrix(1, 0, 0, 1, 0, 0)" xlink:href="#linear-gradient-3"/><linearGradient id="linear-gradient-33" x1="3895.87" y1="1507.19" x2="3993.92" y2="1507.19" xlink:href="#linear-gradient-31"/><linearGradient id="linear-gradient-34" x1="4030.64" y1="1287.93" x2="3982.08" y2="1603.54" gradientTransform="translate(-1915.59)" xlink:href="#linear-gradient-3"/><linearGradient id="linear-gradient-35" x1="3927.9" y1="1272.13" x2="3879.35" y2="1587.73" gradientTransform="translate(-1915.59)" xlink:href="#linear-gradient-3"/><linearGradient id="linear-gradient-36" x1="3836.38" y1="1514.48" x2="3893.15" y2="1514.48" xlink:href="#linear-gradient-31"/><linearGradient id="linear-gradient-37" x1="3714.07" y1="1088.52" x2="3825.22" y2="1088.52" xlink:href="#linear-gradient-31"/><linearGradient id="linear-gradient-38" x1="-1203.6" y1="1397.5" x2="-1139.12" y2="1286.59" gradientTransform="matrix(-1, 0, 0, 1, 856.09, 0)" xlink:href="#linear-gradient-3"/><linearGradient id="linear-gradient-39" x1="2115.37" y1="964.92" x2="1988.56" y2="1284.31" gradientTransform="matrix(1, 0, 0, 1, 0, 0)" xlink:href="#linear-gradient-2"/><linearGradient id="linear-gradient-40" x1="3853.59" y1="1143.08" x2="3888.33" y2="1143.08" xlink:href="#linear-gradient-31"/><linearGradient id="linear-gradient-41" x1="3908.81" y1="1098.19" x2="4161.7" y2="1115.38" xlink:href="#linear-gradient-31"/><linearGradient id="linear-gradient-42" x1="3950.37" y1="1082.94" x2="3861.36" y2="1260.97" gradientTransform="translate(-1915.59)" xlink:href="#linear-gradient-2"/><linearGradient id="linear-gradient-43" x1="1818.41" y1="1008.06" x2="1908.36" y2="903.65" gradientTransform="translate(2352.73 -1163.82) rotate(76.83)" xlink:href="#linear-gradient-13"/><linearGradient id="linear-gradient-44" x1="1959.19" y1="827.5" x2="1693.21" y2="1229.32" gradientTransform="translate(2348.74 -1164.67) rotate(76.72)" xlink:href="#linear-gradient-11"/><linearGradient id="linear-gradient-45" x1="1951.25" y1="839.02" x2="1809.63" y2="1076.79" xlink:href="#linear-gradient-11"/><linearGradient id="linear-gradient-46" x1="1859.54" y1="557.41" x2="1957.1" y2="557.41" gradientTransform="matrix(1, 0, 0, 1, 0, 0)" xlink:href="#linear-gradient-2"/><linearGradient id="linear-gradient-47" x1="-2159.9" y1="1133.62" x2="-2068.93" y2="1133.62" gradientTransform="matrix(-1, 0, 0, 1, -1300.69, 0)" xlink:href="#linear-gradient-31"/><linearGradient id="linear-gradient-48" x1="-2068.43" y1="1601.65" x2="-2000.21" y2="1601.65" gradientTransform="matrix(-1, 0, 0, 1, -1300.69, 0)" xlink:href="#linear-gradient-2"/><linearGradient id="linear-gradient-49" x1="-1897.65" y1="1521.18" x2="-2145.82" y2="1716.04" gradientTransform="matrix(-1, 0, 0, 1, -1300.69, 0)" xlink:href="#linear-gradient-3"/><linearGradient id="linear-gradient-50" x1="-2049.46" y1="1523.99" x2="-2062.49" y2="1637.71" gradientTransform="matrix(-1, 0, 0, 1, -1300.69, 0)" xlink:href="#linear-gradient-31"/><linearGradient id="linear-gradient-51" x1="-1853.57" y1="1577.32" x2="-2101.74" y2="1772.19" gradientTransform="matrix(-1, 0, 0, 1, -1300.69, 0)" xlink:href="#linear-gradient-3"/><linearGradient id="linear-gradient-52" x1="-1964.55" y1="1603.47" x2="-1866.36" y2="1603.47" gradientTransform="matrix(-1, 0, 0, 1, -1300.69, 0)" xlink:href="#linear-gradient-2"/><linearGradient id="linear-gradient-53" x1="-1943.32" y1="1536.16" x2="-1956.35" y2="1649.87" gradientTransform="matrix(-1, 0, 0, 1, -1300.69, 0)" xlink:href="#linear-gradient-31"/><linearGradient id="linear-gradient-54" x1="688.29" y1="1559.54" x2="782.22" y2="887.89" gradientTransform="matrix(1, 0, 0, 1, 0, 0)" xlink:href="#linear-gradient-3"/><linearGradient id="linear-gradient-55" x1="-2807.21" y1="503.91" x2="-2816.6" y2="734.05" gradientTransform="matrix(-1, 0, 0, 1, -2068.46, 0)" xlink:href="#linear-gradient-2"/><linearGradient id="linear-gradient-56" x1="-2020.67" y1="797.02" x2="-2070.42" y2="1012.02" gradientTransform="matrix(-1, 0, 0, 1, -1300.69, 0)" xlink:href="#linear-gradient-31"/><linearGradient id="linear-gradient-57" x1="615.16" y1="739.23" x2="772.51" y2="806.16" gradientTransform="matrix(1, 0, 0, 1, 0, 0)" xlink:href="#linear-gradient-31"/><linearGradient id="linear-gradient-58" x1="-2918.38" y1="-2693.26" x2="-2812.95" y2="-2693.26" gradientTransform="matrix(-0.69, -0.73, -0.73, 0.69, -3207.21, 544.78)" xlink:href="#linear-gradient-2"/><linearGradient id="linear-gradient-59" x1="-2980.25" y1="-2628.83" x2="-2909.45" y2="-2701.46" gradientTransform="matrix(-0.69, -0.73, -0.73, 0.69, -3207.21, 544.78)" xlink:href="#linear-gradient-31"/><linearGradient id="linear-gradient-60" x1="880.72" y1="748.57" x2="851.36" y2="853.07" gradientTransform="matrix(1, 0, 0, 1, 0, 0)" xlink:href="#linear-gradient-2"/><linearGradient id="linear-gradient-61" x1="-2022.22" y1="1189.78" x2="-2057.17" y2="1251.97" gradientTransform="matrix(-1, 0, 0, 1, -1300.69, 0)" xlink:href="#linear-gradient-2"/><linearGradient id="linear-gradient-62" x1="637.41" y1="492.18" x2="628.02" y2="722.33" gradientTransform="matrix(1, 0, 0, 1, 0, 0)" xlink:href="#linear-gradient-2"/><linearGradient id="linear-gradient-63" x1="248.57" y1="1422.66" x2="486.55" y2="1422.66" gradientTransform="matrix(1, 0, 0, 1, 0, 0)" xlink:href="#linear-gradient-2"/><linearGradient id="linear-gradient-64" x1="482.9" y1="764.1" x2="291.19" y2="1257.08" gradientTransform="matrix(1, 0, 0, 1, 0, 0)" xlink:href="#linear-gradient-3"/><linearGradient id="linear-gradient-65" x1="749.05" y1="928.66" x2="358.78" y2="1294.97" xlink:href="#linear-gradient-11"/><linearGradient id="linear-gradient-66" x1="1056.16" y1="694.14" x2="849.5" y2="1027.61" xlink:href="#linear-gradient-13"/><linearGradient id="linear-gradient-67" x1="778.4" y1="1097.57" x2="798.58" y2="1165.98" gradientTransform="matrix(1, 0, 0, 1, 0, 0)" xlink:href="#linear-gradient-31"/><linearGradient id="linear-gradient-68" x1="612.82" y1="902.43" x2="632.52" y2="969.19" gradientTransform="matrix(1, 0, 0, 1, 0, 0)" xlink:href="#linear-gradient-31"/><linearGradient id="linear-gradient-69" x1="-3853.55" y1="823.67" x2="-3818.06" y2="912.68" gradientTransform="matrix(-1, 0, 0, 1, -2659.01, 0)" xlink:href="#linear-gradient-2"/><linearGradient id="linear-gradient-70" x1="-4046.22" y1="313.13" x2="-3980.67" y2="462.29" gradientTransform="matrix(-0.98, -0.21, -0.21, 0.98, -2611.67, -266.75)" xlink:href="#linear-gradient-31"/><linearGradient id="linear-gradient-71" x1="-3692.25" y1="973.04" x2="-3700.47" y2="1182.05" gradientTransform="matrix(-1, 0, 0, 1, -2659.01, 0)" xlink:href="#linear-gradient-2"/><linearGradient id="linear-gradient-72" x1="-3850.97" y1="1512.23" x2="-3807.67" y2="1006.12" gradientTransform="matrix(-1, 0, 0, 1, -2659.01, 0)" xlink:href="#linear-gradient-31"/><linearGradient id="linear-gradient-73" x1="-3822.58" y1="967.92" x2="-3830.8" y2="1176.93" gradientTransform="matrix(-1, 0, 0, 1, -2659.01, 0)" xlink:href="#linear-gradient-2"/><linearGradient id="linear-gradient-74" x1="-3763.87" y1="1519.76" x2="-3720.55" y2="1013.52" gradientTransform="matrix(-1, 0, 0, 1, -2659.01, 0)" xlink:href="#linear-gradient-31"/><linearGradient id="linear-gradient-75" x1="-3849.9" y1="1001.85" x2="-3828.25" y2="1202.74" gradientTransform="matrix(-1, 0, 0, 1, -2659.01, 0)" xlink:href="#linear-gradient-3"/><linearGradient id="linear-gradient-76" x1="-3730.63" y1="1011.71" x2="-3838.89" y2="1184.93" gradientTransform="matrix(-1, 0, 0, 1, -2659.01, 0)" xlink:href="#linear-gradient-3"/><linearGradient id="linear-gradient-77" x1="1188.91" y1="921.04" x2="1173.65" y2="1056.07" gradientTransform="matrix(1, 0, 0, 1, 0, 0)" xlink:href="#linear-gradient-31"/><linearGradient id="linear-gradient-78" x1="-3956.36" y1="307.12" x2="-3966.93" y2="396.36" gradientTransform="matrix(-0.98, -0.19, -0.19, 0.98, -2618.25, -238.99)" xlink:href="#linear-gradient-31"/><linearGradient id="linear-gradient-79" x1="-3970.77" y1="304.1" x2="-3935.28" y2="393.12" gradientTransform="matrix(-0.98, -0.19, -0.19, 0.98, -2618.25, -238.99)" xlink:href="#linear-gradient-2"/><linearGradient id="linear-gradient-80" x1="-3936.92" y1="309.42" x2="-3947.49" y2="398.66" gradientTransform="matrix(-0.98, -0.19, -0.19, 0.98, -2618.25, -238.99)" xlink:href="#linear-gradient-31"/><linearGradient id="linear-gradient-81" x1="-4059.18" y1="318.83" x2="-3993.62" y2="467.99" gradientTransform="matrix(-0.98, -0.21, -0.21, 0.98, -2611.67, -266.75)" xlink:href="#linear-gradient-31"/><linearGradient id="linear-gradient-82" x1="1336.16" y1="673.51" x2="1327.94" y2="797.98" gradientTransform="matrix(1, 0, 0, 1, 0, 0)" xlink:href="#linear-gradient-31"/><linearGradient id="linear-gradient-83" x1="1283.62" y1="1059.34" x2="1428.08" y2="1059.34" gradientTransform="translate(-257.58)" xlink:href="#linear-gradient-31"/></defs><g id="Illustration"><path class="cls-1" d="M1035.79,37.86C910,68.65,794.79,162.66,631.26,373.53S441.9,545.67,265.46,593s-352.89,262.52-90.38,542.25,518.16,244.29,1026.24,271.3c434.39,23.1,345.2,150.8,792.77,94.85s246.79-1124.13,40.13-1209.65c-249.61-103.28-456.18,68.86-602.5-64.55S1246.67-13.79,1035.79,37.86Z"/><path class="cls-2" d="M231.64,335.45a12.5,12.5,0,0,0-20.38,7.45C186,488.59,73.69,1342.43,856,1591.75,856,1591.75,1074.63,1048.67,231.64,335.45Z"/><path class="cls-3" d="M282.12,474.61s4,17.22,11.61,47.26c3.8,15,8.46,33.23,14,54.08s11.83,44.36,18.9,69.95q5.37,19.17,11.16,39.88L350,728.37c8.56,29.19,17.67,60,27.53,91.63s20.24,64.36,31.08,97.47l16.72,49.87c5.81,16.64,11.46,33.41,17.44,50.06s11.82,33.36,18,49.85q4.59,12.4,9.16,24.73c3.06,8.22,6.25,16.36,9.36,24.49s6.24,16.22,9.34,24.27,6.39,16,9.55,23.91c6.24,15.88,12.78,31.42,19.16,46.72,12.79,30.59,25.75,59.9,38.51,87.47s25.35,53.39,37.54,76.91c5.9,11.87,12,23,17.8,33.59q4.32,8,8.41,15.49c2.79,5,5.64,9.75,8.32,14.41,5.45,9.27,10.35,18.07,15.24,26l13.57,21.66q3.08,4.9,5.83,9.26l5.43,8c3.37,5,6.23,9.16,8.56,12.57l7.12,10.47.11.16a4.6,4.6,0,1,1-7.6,5.18v0l-7.15-10.61-8.59-12.73-5.44-8.08-5.83-9.36-13.58-21.9c-4.89-8-9.78-16.87-15.22-26.23-2.68-4.7-5.52-9.51-8.3-14.54l-8.39-15.62c-5.74-10.69-11.86-21.89-17.73-33.84-12.14-23.69-24.63-49.68-37.33-77.39s-25.54-57.19-38.22-87.91c-6.32-15.37-12.8-31-19-46.93l-9.46-24L472.74,1119c-3.07-8.16-6.23-16.33-9.26-24.57l-9.05-24.82c-6.14-16.55-11.9-33.31-17.82-50s-11.49-33.53-17.22-50.21q-8.31-25.14-16.52-50c-10.7-33.19-21.05-65.92-30.65-97.71s-18.7-62.59-27.12-91.85q-6.23-22-12.08-42.68-5.68-20.72-11-40C294.18,544.59,278.32,475.5,278.32,475.5a2,2,0,0,1,3.8-.89Z"/><path class="cls-4" d="M31.91,842.28c-1.32-7.85,8.79-12.27,13.62-5.94,46.74,61.19,174.31,217.81,298.79,278.32C547,1213.18,740.89,1427,702.26,1593.06,702.26,1593.06,175.66,1698,31.91,842.28Z"/><path class="cls-3" d="M86.9,934.18l1.15,2,3.51,5.72c3.13,5.08,7.91,12.43,14,21.78s13.59,20.62,22.37,33.44,18.84,27.16,29.83,42.8,23.19,32.38,36.34,49.9,27.2,35.84,41.87,54.69,30.18,38.06,46.29,57.28l12.1,14.48,12.38,14.41c8.2,9.68,16.73,19.14,25.15,28.68s17.17,18.82,25.65,28.25q13,13.86,25.92,27.58c8.78,8.94,17.35,18,26.08,26.59l13.05,12.85L429,1361l6.52,6.18c17.28,16.47,34.36,32,50.83,46.38l12.25,10.56,6,5.16,6,4.93c8,6.46,15.63,12.87,23.15,18.73l21.76,16.65c7,5.19,13.73,9.94,20,14.5l9.15,6.56,8.71,5.81,15.35,10.24c9.39,6,16.92,10.45,22,13.63l7.8,4.8,0,0a1.15,1.15,0,0,1-1.18,2l-8-4.57c-5.16-3-12.88-7.25-22.43-13.08l-15.64-9.92-8.88-5.64-9.33-6.38c-6.4-4.45-13.32-9-20.41-14.13L530.64,1457c-7.64-5.78-15.38-12.1-23.51-18.49-2-1.6-4.07-3.23-6.12-4.86l-6.09-5.11-12.46-10.44c-16.79-14.17-34-29.71-51.42-46.17l-6.58-6.17-6.51-6.35-13.16-12.84c-8.81-8.63-17.45-17.64-26.31-26.57l-26.14-27.57-12.88-14.14c-4.29-4.72-8.6-9.44-12.79-14.26-8.42-9.62-16.93-19.14-25.12-28.88l-12.36-14.5-12.08-14.57c-16.08-19.35-31.43-38.76-46.19-57.62-14.58-19-28.49-37.5-41.36-55.28s-24.87-34.71-35.82-50.43c-21.74-31.54-39-58.39-50.88-77.32-5.91-9.49-10.45-17-13.47-22.18-1.53-2.55-2.69-4.65-3.47-6s-1.1-2.07-1.1-2.07a1.15,1.15,0,0,1,2-1.1Z"/><path class="cls-2" d="M734.76,1615.82s-52.11-84.12-188.83-119.65c-126.84-33-431.8-102.44-537.43-178.27a5.31,5.31,0,0,0-7.74,6.95c30.89,53.51,118.79,181.46,289,259.68C509.33,1685.41,734.76,1615.82,734.76,1615.82Z"/><path class="cls-3" d="M96,1394.64s1.62,2,5,5.43c1.65,1.73,3.7,3.84,6.24,6.22s5.4,5.14,8.72,8.11,7.14,6.13,11.24,9.61,8.83,6.87,13.71,10.69c5,3.63,10.45,7.42,16.16,11.4l9,5.83c3.08,2,6.14,4.11,9.47,6,13.09,7.84,27.49,16,43.24,23.56,7.93,3.67,15.9,7.8,24.43,11.2s17,7.45,26,10.53c17.81,6.78,36.56,12.86,55.79,18.38l29.22,7.66,29.84,7,29.84,6.66,29.7,6.35c19.68,4.14,39.09,8,57.91,11.69l54.26,10.62c17.27,3.38,33.61,6.55,48.64,9.8s28.76,6.61,40.85,9.84c6.05,1.64,11.64,3.44,16.84,5,5.16,1.7,9.86,3.4,14.11,4.86a200,200,0,0,1,19.19,8.36l6.62,3.32a1.14,1.14,0,0,1,.51,1.54,1.15,1.15,0,0,1-1.49.54l-.08,0-6.69-3c-4.28-2.09-10.9-4.38-19.26-7.37-4.26-1.3-8.95-2.8-14.09-4.31-5.21-1.32-10.79-2.9-16.84-4.31-12.09-2.84-25.83-5.62-40.87-8.49s-31.41-5.75-48.72-8.78L499.9,1569c-18.88-3.49-38.37-7.22-58.15-11.2-9.88-2-19.83-4.07-29.81-6.25l-30-6.67-29.84-7c-10-2.58-19.77-5.34-29.56-8-19.43-5.76-38.41-12-56.31-19.26-9.08-3.28-17.64-7.45-26.16-11.14s-16.56-8-24.48-11.92a485.53,485.53,0,0,1-43-25.17c-3.3-2-6.32-4.3-9.36-6.39l-8.84-6.23c-5.63-4.21-10.84-8.38-15.75-12.26-4.74-4.11-9.3-7.79-13.28-11.47s-7.7-7-10.82-10.22-6-6-8.33-8.63-4.3-4.81-5.84-6.65c-3.1-3.68-4.59-5.76-4.59-5.76a.14.14,0,0,1,0-.2A.14.14,0,0,1,96,1394.64Z"/><path class="cls-2" d="M1736.16,15.77c67.36,106.57,434,742.8-101.21,1194.11,0,0-349.21-356.72,82.72-1193.34A10.66,10.66,0,0,1,1736.16,15.77Z"/><path class="cls-3" d="M1726.8,142.05s10,59.61,21.52,149.51c2.89,22.47,5.85,46.84,8.79,72.63s5.88,53,8.58,81.21,5.32,57.35,7.71,87q1.63,22.26,3.3,44.79c.92,15,2,30.1,2.8,45.19s1.71,30.17,2.27,45.22q.48,11.28,1,22.5t.72,22.39q.33,11.16.66,22.21t.37,22c.34,14.58.32,29,.35,43.17,0,28.35-.5,55.76-1.45,81.74s-2.33,50.54-4.17,73.18c-.73,11.33-1.9,22.15-2.94,32.45q-.78,7.72-1.51,15c-.55,4.87-1.23,9.59-1.8,14.17-1.24,9.16-2.2,17.75-3.45,25.65s-2.48,15.14-3.55,21.69c-.55,3.27-1.06,6.37-1.55,9.28s-1.14,5.62-1.65,8.15c-1,5.06-1.91,9.36-2.62,12.84-1.42,7-2.17,10.7-2.17,10.7a4.6,4.6,0,0,1-9-1.84v0l0-.19s.76-3.68,2.2-10.56c.72-3.45,1.61-7.69,2.66-12.69.52-2.49,1.08-5.18,1.68-8s1-6,1.58-9.19c1.1-6.48,2.31-13.66,3.64-21.47s2.27-16.35,3.55-25.42c.6-4.54,1.3-9.22,1.87-14.06s1-9.83,1.58-14.94c1.09-10.23,2.31-21,3.1-32.25,2-22.5,3.45-46.93,4.56-72.8s1.75-53.19,1.88-81.45c0-14.14.15-28.51-.11-43.05q-.12-10.92-.25-21.95t-.53-22.16q-.3-11.13-.6-22.35t-.83-22.46c-.48-15-1.32-30.08-2-45.15s-1.71-30.12-2.55-45.12q-1.53-22.5-3.05-44.75c-2.23-29.62-4.58-58.75-7.22-86.92s-5.37-55.38-8.13-81.17-5.62-50.15-8.38-72.61c-11-89.89-20.68-149.47-20.68-149.47a2,2,0,0,1,3.85-.63Z"/><path class="cls-4" d="M2311.53,118.61c22.9,146.56,121.32,1004.86-667.51,1241.9,0,0-210.25-548.38,647.19-1249.71A12.55,12.55,0,0,1,2311.53,118.61Z"/><path class="cls-3" d="M2241.75,250.32s-13.87,73.7-43.85,182c-15,54.12-33.92,116.88-56.94,183.22s-50,136.26-80.57,204.68-64.75,135.24-100.87,195.57c-18,30.15-36.56,58.69-55.08,85.07s-37,50.66-55,72.33-35.37,40.78-51.3,57.22l-11.7,11.8c-3.77,3.79-7.57,7.28-11.13,10.73-7.09,6.92-14,12.92-20,18.44l-4.47,4-4.32,3.66-7.86,6.65c-4.83,4.18-9.12,7.52-12.58,10.26l-10.59,8.4a3.82,3.82,0,0,1-4.74-6h0l.1-.08,10.51-8.27c3.43-2.7,7.69-6,12.48-10.11l7.8-6.55,4.3-3.61q2.14-1.93,4.43-4c6.06-5.45,12.87-11.36,19.92-18.2,3.54-3.4,7.32-6.85,11.08-10.59l11.63-11.66c15.86-16.25,33.2-35.14,51.14-56.6s36.41-45.52,54.93-71.7,37-54.52,55.14-84.48c36.18-59.95,70.48-126.48,101.25-194.58s58-137.81,81.17-204,42.37-128.75,57.53-182.75,26.28-99.42,33.61-131.3,10.83-50.24,10.83-50.24a1.62,1.62,0,0,1,3.18.61Z"/><path class="cls-2" d="M2474.71,828.73c-29.35,127-230.28,859-951,793.79,0,0,8.23-515.95,937-806.81A11,11,0,0,1,2474.71,828.73Z"/><path class="cls-3" d="M2375.1,913.55s-8.84,13.51-25,36.57c-8.13,11.51-18,25.47-29.66,41.28s-24.89,33.54-39.57,52.72-30.87,39.75-48.37,61.19-36.2,43.87-55.82,66.82c-19.83,22.78-40.45,46.21-62.06,69.43l-16.23,17.5-16.62,17.34c-11,11.68-22.45,23-33.79,34.48-5.63,5.76-11.41,11.38-17.2,17l-17.3,16.8c-11.64,11.06-23.4,21.9-35,32.71-11.89,10.52-23.51,21.14-35.29,31.29l-17.67,15c-5.84,5-11.62,9.95-17.56,14.64-23.4,19.14-46.53,37-69,53.34q-8.46,6-16.69,11.92c-5.47,3.93-10.85,7.81-16.34,11.36-10.9,7.18-21.31,14.31-31.52,20.82l-29.63,18.18c-2.33,1.48-4.69,2.84-7.06,4.13l-6.94,3.89-13.29,7.45-12.48,7-11.88,6-20.93,10.55c-3.13,1.65-6.21,3-9.09,4.25l-8.09,3.6-12.76,5.68-10.63,4.73a4.6,4.6,0,0,1-3.74-8.4h0l.22-.1,10.52-4.62,12.65-5.55,8-3.52c2.86-1.25,5.91-2.54,9-4.16l20.77-10.34,11.79-5.86,12.4-6.85,13.22-7.32,6.9-3.82c2.35-1.26,4.7-2.6,7-4.06l29.49-17.89c10.18-6.41,20.55-13.44,31.41-20.52,5.47-3.49,10.84-7.32,16.3-11.2l16.65-11.76c22.4-16.09,45.5-33.78,68.9-52.72,5.93-4.63,11.71-9.55,17.55-14.47l17.67-14.87c11.79-10.05,23.42-20.58,35.31-31,11.63-10.71,23.41-21.46,35.06-32.42l17.34-16.66c5.8-5.54,11.59-11.11,17.24-16.83,11.36-11.35,22.82-22.62,33.87-34.2l16.66-17.22,16.29-17.38c21.67-23,42.37-46.32,62.28-69,19.7-22.81,38.6-45,56-66.41s33.75-41.85,48.61-60.84,28.14-36.67,39.78-52.44,21.64-29.61,29.82-41c16.29-23,25.14-36.34,25.14-36.34a2,2,0,0,1,3.26,2.15Z"/><rect class="cls-5" x="694.91" y="1400.03" width="1136.7" height="25.78"/><path class="cls-5" d="M1845.75,1509.21l-28.3-1.84c12.94-198.28-10.58-895.89-18.09-1105A56.73,56.73,0,0,0,1743,348h-.77L745.84,361.63A48.17,48.17,0,0,0,698.46,413C715,665.27,709.14,1500,709.08,1508.39l-28.35-.2c.06-8.4,5.9-842.09-10.56-1093.33a76.52,76.52,0,0,1,75.29-81.58l996.38-13.58c45.74-.66,84.21,36,85.85,81.67C1835.22,610.8,1858.76,1309.61,1845.75,1509.21Z"/><path class="cls-5" d="M524.68,1589.52l-10.39-38.09a34,34,0,0,1,32-43l325.33-8.35a30.86,30.86,0,0,1,31.6,32.52l-3,55.42a6.94,6.94,0,0,1-6.93,6.58h-4.51a7,7,0,0,1-7-7v-48.86a18.12,18.12,0,0,0-18.93-18.1l-310.16,13.78a18.12,18.12,0,0,0-17.24,19.68l2.86,32.9a7,7,0,0,1-6.93,7.55h0A7,7,0,0,1,524.68,1589.52Z"/><circle class="cls-6" cx="533.81" cy="1597.21" r="30.93" transform="translate(-1112.12 1953.55) rotate(-83.74)"/><circle class="cls-7" cx="531.23" cy="1597.21" r="18.04" transform="translate(-973.81 843.45) rotate(-45)"/><circle class="cls-8" cx="894.66" cy="1597.21" r="30.93" transform="translate(-825.24 2224.48) rotate(-80.78)"/><circle class="cls-9" cx="892.09" cy="1597.21" r="18.04" transform="translate(-868.12 1098.61) rotate(-45)"/><path class="cls-5" d="M1647.2,1590.8l-10.39-38.08a34,34,0,0,1,32-43l325.33-8.34a30.86,30.86,0,0,1,31.6,32.51l-3,55.43a6.94,6.94,0,0,1-6.93,6.58h-4.51a7,7,0,0,1-7-7v-48.86a18.12,18.12,0,0,0-18.93-18.1l-310.16,13.78a18.11,18.11,0,0,0-17.24,19.67l2.86,32.9a7,7,0,0,1-6.93,7.56h0A6.94,6.94,0,0,1,1647.2,1590.8Z"/><circle class="cls-10" cx="1656.33" cy="1598.5" r="30.93" transform="translate(-645.19 1639.39) rotate(-45)"/><circle class="cls-11" cx="1653.75" cy="1598.5" r="18.04" transform="translate(-645.94 1637.57) rotate(-45)"/><circle class="cls-12" cx="2017.18" cy="1598.5" r="30.93" transform="translate(128.66 3347.13) rotate(-81.19)"/><circle class="cls-13" cx="2014.61" cy="1598.5" r="18.04" transform="translate(-542.75 1870.13) rotate(-44.49)"/><rect class="cls-14" x="1024.83" y="340.66" width="7.73" height="92.79"/><path class="cls-15" d="M951.37,829.11s123.72-23.2,219.09-10.31c0,0,41.27,158.18,59.2,237.22a33.57,33.57,0,0,1-30.75,41c-62.25,3.67-184.68,10.08-252,8.19a33.56,33.56,0,0,1-32.35-37.84C923.05,1001.36,941.63,862.23,951.37,829.11Z"/><path class="cls-16" d="M1113.74,933.5a9,9,0,0,1-9-8.15c-.12-1.23-12.09-124-28-248.84-24.23-190.23-39.6-244.74-46.7-260.26-5.22,16.06-13.82,71.33-14,260.68-.1,124.29,3.52,246.06,3.56,247.27a9,9,0,1,1-18,.55c0-1.29-3.87-129.84-3.55-257.84.19-75.29,1.75-135.69,4.65-179.53,5.41-81.91,14.26-90.94,23.62-93.46a12.8,12.8,0,0,1,10.69,2c7.25,5,24.23,16.79,57.29,275.53,16.11,126.06,28.27,250.89,28.39,252.13a9,9,0,0,1-8.1,9.85A8.85,8.85,0,0,1,1113.74,933.5Z"/><path class="cls-17" d="M995.19,857.46h28.35l2.36,75.33a6.94,6.94,0,0,1-6.93,7.15h-14.49a6.92,6.92,0,0,1-6.92-6.71Z"/><path class="cls-18" d="M1093.14,852.3h25.77l7.07,80.1a6.93,6.93,0,0,1-6.91,7.54h-11.85a6.93,6.93,0,0,1-6.91-6.32Z"/><path class="cls-19" d="M657.53,445.05a511.73,511.73,0,0,1-25.21-58.56,70.37,70.37,0,0,1,22.16-78.55,396.77,396.77,0,0,1,37.87-27.11,73.16,73.16,0,0,1,89.12,8.9c14.11,13.4,29.31,27.33,38.45,34.18,0,0,142,0,213.1-42.15a10.23,10.23,0,0,1,15.39,8.83c.06,25.87-8.53,73.88-66.11,108.07-82.48,49-146.92,100.52-185.58,157.23C760.37,609.2,637.46,678.45,573.61,656.57a10.24,10.24,0,0,1-5.15-15.18C608.73,577.65,641.11,512.63,657.53,445.05Z"/><path class="cls-20" d="M819.92,323.91c-4.78-3.58-11.22-9.11-18.29-15.48-41.7,72.13-147.25,107.69-156.34,110.64,6.89,15.77,12.24,26,12.24,26S781.25,406.39,819.92,323.91Z"/><path class="cls-21" d="M1474.61,460.52a10.31,10.31,0,0,1-2.8-20.23c4.19-1.19,104.29-28.71,249.13-8a10.31,10.31,0,0,1-2.92,20.41c-140.55-20.08-239.62,7.17-240.61,7.45A10.11,10.11,0,0,1,1474.61,460.52Z"/><path class="cls-22" d="M1582.32,445.27a10.3,10.3,0,0,1-10.29-9.91c0-.2-.76-20-.76-38,0-10.12,8.23-19.19,18.65-30.69,21.3-23.49,28.17-35.19,15.6-46.79-7.26-6.7-14.21-9.59-21.22-8.81-13.75,1.52-24.18,16.37-24.28,16.52A10.31,10.31,0,0,1,1543,316c.63-.92,15.7-22.7,38.88-25.36,13.19-1.5,25.84,3.25,37.63,14.13,29.62,27.34,2.12,57.68-14.3,75.8-5,5.53-12.57,13.86-13.31,17,0,17.59.74,36.8.74,37a10.31,10.31,0,0,1-9.9,10.7Z"/><path class="cls-23" d="M1505.65,429.44c37.42-4.47,117.79-12,176.31-3.07a13.61,13.61,0,0,1,10.78,18.1c-8.42,22.41-9.27,55.1,3.21,84.5a21.83,21.83,0,0,1,1.17,13.58l-24,101-144.34,7.74-29.21-107.1a21.67,21.67,0,0,1,.12-11.87c4-13.56,12-49.71-4.46-83.63A13.42,13.42,0,0,1,1505.65,429.44Z"/><path class="cls-24" d="M1856.09,1102.33S1802,818.8,1678.24,651.26l-152.08,5.15s-95.37,252.6-92.79,461.38c0,0,43.82,33.51,128.88,10.31s90.21-2.58,144.34,10.31S1856.09,1102.33,1856.09,1102.33Z"/><path class="cls-25" d="M1523.09,630.53l3.07,25.88s105.68,15.47,152.08-5.15l-2.49-24.2S1572.56,641,1523.09,630.53Z"/><path class="cls-26" d="M1283.87,421.86s2.58-33.51,43.82-25.78,92.79,12.89,110.84,0,64.53-8.83,54.12,18C1461.72,494,1283.87,421.86,1283.87,421.86Z"/><path class="cls-27" d="M1381.27,445.27a10.3,10.3,0,0,1-10.29-9.91c0-.2-.76-20-.76-38,0-10.12,8.23-19.19,18.65-30.69,21.3-23.49,28.17-35.19,15.6-46.79-7.26-6.7-14.21-9.59-21.22-8.81-13.75,1.52-24.18,16.37-24.28,16.52A10.31,10.31,0,0,1,1342,316c.63-.92,15.7-22.7,38.87-25.36,13.19-1.5,25.84,3.25,37.63,14.13,29.62,27.34,2.12,57.68-14.3,75.8-5,5.53-12.57,13.86-13.31,17,0,17.59.74,36.8.75,37a10.32,10.32,0,0,1-9.91,10.7Z"/><path class="cls-28" d="M1317.38,1236.36c5.16-2.58,177.85-2.58,177.85-2.58l-25.77-322.19-110.84,2.58Z"/><polygon class="cls-29" points="1330.27 903.86 1469.46 903.86 1474.61 470.83 1276.14 473.41 1330.27 903.86"/><path class="cls-30" d="M1256.81,485.08c-17.82,54-48.94,215.51-19.33,429.09,0,0,15.46,12.88,38.66,0l10.31-451.07-3.24.4A31.94,31.94,0,0,0,1256.81,485.08Z"/><path class="cls-31" d="M1485,455.57c-2.13,1.12,78,161.76,87.8,436.52.37,10.4-8.36,18.86-18.76,19.17-6.09.19-12.57-.27-17.52-2.25-12.89-5.15-67-417.56-67-417.56Z"/><path class="cls-32" d="M1275.14,463.8l37.09-3.28S1417.91,842,1425.64,911.59c6.31,56.81-54.36,245.86-76.86,313.4-6.54,19.62-26,32.31-46.5,29.4a45.66,45.66,0,0,1-15.83-5.14S1229.74,664.14,1275.14,463.8Z"/><path class="cls-33" d="M1456.57,460.52l-47.28,442.9A99.14,99.14,0,0,0,1411,935c13.91,63.84,66,301.21,73.92,309.09,6.92,6.92,19,7.13,30.24,5.25a31.59,31.59,0,0,0,26.41-31.28c-.29-76.3-2-319.34-12.83-437.93-12.89-141.76-54.13-319.61-54.13-319.61Z"/><circle class="cls-34" cx="1437.24" cy="910.3" r="9.02" transform="translate(-222.72 1282.9) rotate(-45)"/><path class="cls-35" d="M1277,480s-21.45-11.73-8.56-55.55,51.55-10.31,85.06,2.58,95.37-18,113.41-28.35,46.39-10.31,46.39,61.86S1350,584.51,1277,480Z"/><path class="cls-36" d="M1944.82,1010.9s-64.73,82.88,9.13,167.18l27.76-2.59s-50.83-81.62-31.27-149.11a6.54,6.54,0,0,1,6.75-4.75l28.34,2.07a15,15,0,0,0,10.46-3.26l17.16-13.79Z"/><path class="cls-37" d="M1998.24,643.08l-33.48-32.67a27.29,27.29,0,0,0-19-7.75h-72.64a27.27,27.27,0,0,0-18.81,7.53L1820,642.82a27.3,27.3,0,0,0-8.45,19L1803,984.45a27.28,27.28,0,0,0,27.27,28h163.89a27.28,27.28,0,0,0,27.25-28.54l-15-322.57A27.24,27.24,0,0,0,1998.24,643.08Zm-88.3,16.81a20.38,20.38,0,1,1,16.64-16.64A20.38,20.38,0,0,1,1909.94,659.89Z"/><path class="cls-38" d="M1980.28,1416.68s52.45,114.31,80,161.66c0,0,5.47,29.79,0,39.16l-4.66,2.07,21.74-.65s1.93-40.07.43-42.31-4.53-2.09-4.53-2.09-9.32-73.85-36.31-89.61l-26.16-90.1Z"/><path class="cls-39" d="M2046.3,1625.18c0,.53,17,.29,26.21.12a7.35,7.35,0,0,0,7-5.8l7-36.65a6.59,6.59,0,0,0-5-7.65l-3.89-.89s-5.56,7.62-3.81,14.79,3.31,25.76-1.11,27.93-17.14,2.54-17.14,2.54S2046.59,1620.46,2046.3,1625.18Z"/><path class="cls-40" d="M1930.57,1625.85a1.91,1.91,0,0,0,1,3.58c15.46-.15,50.11-.64,53.19-1.92,4-1.65-1.45-15.93-7.16-20.77L1946.05,1617Z"/><path class="cls-41" d="M1920.78,1409.39s33.9,164,43.49,195.95l-22.69,14.23s11.37-1.93,19.8-2.54,16.18-10.29,16.18-10.29l-2.72-4.33s-8.5-163.07-6.43-181.59Z"/><path class="cls-42" d="M1836.65,1027s-4.67,85.29,73,128.87l-18.7,42.64s-70.3-42.52-67.7-158.5a13.51,13.51,0,0,0-3.3-9.08L1805,1013.54a26.81,26.81,0,0,1-5.71-24l2-7.86a4.08,4.08,0,0,1,6-2.54l1.56.91a27.43,27.43,0,0,1,11.27,12.52l7.5,11.84c2.74,6.13,3.38,8.7,10.07,8.12l12.43.14Z"/><path class="cls-43" d="M1906.93,1149.43c13,3.6,57,15.18,84.47,14.71l-16.86,95.2,1.34,15.53-55-.25s-15.49-36-27.7-53.89c-3.53-5.18-.91-11.35,1.09-17.29l-2.74-1.83a7.48,7.48,0,0,1-3-8.55l13.39-41A4.1,4.1,0,0,1,1906.93,1149.43Z"/><path class="cls-44" d="M1916.47,1266.49l1.08,9.41s-15.54,46.55,7.77,155.27c0,0,50.5,14.31,92-19.92,0,0-11.71-102.62-14.9-107.4-15.93-23.81-26.54-29-26.54-29l-.48-10.28S1931,1272.61,1916.47,1266.49Z"/><path class="cls-45" d="M1938,1157.1c-.19-.25,11.48-35.25,11.48-35.25l16.73,1.52,6.53,39.7S1946.53,1168.36,1938,1157.1Z"/><path class="cls-46" d="M1962.2,1066.66c-1.11.7-35.74,15-28.3,50.95a6.74,6.74,0,0,0,3.84,4.81,58.6,58.6,0,0,0,29.1,4.82c18.14-1.85,30-33.5,29.52-42.71S1973.26,1059.78,1962.2,1066.66Z"/><path class="cls-47" d="M1972.74,1052.69c-.91.12-20,6.77-10.54,20.61s13,22,8.55,28.06c-4.08,5.54-13.13,2.38-12.34,13.9a6.45,6.45,0,0,1-2.75,5.84c-8.52,5.77-29.3,23.52-8.71,48.83a6.47,6.47,0,0,1,.73,7.22c-6,10.81-18.7,42.51,27.16,60.09,45.33,17.37,61.69-12.26,66.26-24.1a6.33,6.33,0,0,1,6.26-4c5,.23,12-.6,11.71-7.25-.2-4-2.72-7.67-5.7-10.57a6.31,6.31,0,0,1,1.21-9.94,12.36,12.36,0,0,0,6.11-7.69c2.75-10.17-2.73-40.61-31.9-45.76-2.44-.43-5-2.72-5.34-5.16,0,0,0-.07,0-.11a6.31,6.31,0,0,1,2.34-6.2c4.66-3.42,10.64-10.3,5.78-21.33-4.3-9.78-12.55-13.09-18.68-14.14a6.35,6.35,0,0,1-5.21-7.59C2009.73,1063.67,2007.93,1048.08,1972.74,1052.69Z"/><path class="cls-2" d="M1847.44,722.46l120.94-20.53a7.88,7.88,0,0,1,9.2,7.76v6.85a7.88,7.88,0,0,1-7,7.83l-120.94,13.69a7.88,7.88,0,0,1-8.77-7.83h0A7.89,7.89,0,0,1,1847.44,722.46Z"/><path class="cls-2" d="M1847.44,758.57,1968.38,738a7.88,7.88,0,0,1,9.2,7.77v6.85a7.88,7.88,0,0,1-7,7.83l-120.94,13.69a7.88,7.88,0,0,1-8.77-7.83h0A7.89,7.89,0,0,1,1847.44,758.57Z"/><circle class="cls-48" cx="1910.18" cy="901.54" r="67.06" transform="translate(597.08 2556.03) rotate(-76.83)"/><circle class="cls-49" cx="1910.18" cy="901.54" r="64.83" transform="translate(593.88 2553.49) rotate(-76.72)"/><path class="cls-50" d="M1856.72,876.91a2.35,2.35,0,0,1-1-.24,2.3,2.3,0,0,1-1-3.09,61.87,61.87,0,0,1,55.51-34.18,62.74,62.74,0,0,1,11.21,1,2.3,2.3,0,1,1-.83,4.52,58,58,0,0,0-10.38-.93,57.3,57.3,0,0,0-51.4,31.65A2.31,2.31,0,0,1,1856.72,876.91Z"/><circle class="cls-50" cx="1911.59" cy="902.96" r="54.87" transform="translate(-200.3 999.96) rotate(-27.91)"/><path class="cls-51" d="M1906.21,943.75v-6a48.74,48.74,0,0,1-16.75-3.63,3.46,3.46,0,0,1-1.91-4.08l1.52-5.56a3.47,3.47,0,0,1,4.72-2.28,40.39,40.39,0,0,0,15.47,3.25c6,0,10.46-2,10.46-6.19,0-3.76-3.45-6-11.79-8.23-11.88-3.25-20.42-8.43-20.42-18.9,0-9.45,6.91-16.66,18.9-18.59v-6a3.48,3.48,0,0,1,3.48-3.48h3.51a3.47,3.47,0,0,1,3.47,3.48V873a44.65,44.65,0,0,1,13.28,2.38,3.45,3.45,0,0,1,2.16,4.18l-1.39,5.15a3.48,3.48,0,0,1-4.58,2.34,36.13,36.13,0,0,0-13-2.37c-7.11,0-9.14,3-9.14,5.59,0,3.25,4.26,5.49,13.51,8.33,13.2,4,18.69,9.45,18.69,19.3,0,9-6.7,17.17-19.71,19.21v6.68a3.48,3.48,0,0,1-3.48,3.48h-3.5A3.48,3.48,0,0,1,1906.21,943.75Z"/><path class="cls-52" d="M1908,652.85a5.15,5.15,0,0,1-4.77-3.19c-8.85-21.41,1.26-44.53,11.31-60.15,3.06-4.76,6.39-9.43,9.61-13.94,8.21-11.51,16-22.37,19.92-35a62.7,62.7,0,0,0-12-58.45c-5.77-6.73-26.65-14.41-42.06-6.29-13.43,7.08-32.5,31.92-9.35,118.74a5.15,5.15,0,1,1-10,2.65c-23.75-89-5.22-120.12,14.5-130.51s45.66-1.84,54.7,8.69c15.78,18.36,21.28,45.16,14,68.26-4.46,14.19-13.06,26.24-21.37,37.89-3.15,4.41-6.4,9-9.33,13.53-7.14,11.1-18,32.43-10.46,50.64a5.15,5.15,0,0,1-2.8,6.73A5,5,0,0,1,1908,652.85Z"/><path class="cls-53" d="M826.46,1086.74c9.33,10,23.08,18.56,32.75,23.93-14.45,17.85-34,35.73-59.85,53.22L792,1180.51l-23.72-28.43S810.8,1130.9,826.46,1086.74Z"/><path class="cls-54" d="M699.52,1625.94a5.81,5.81,0,0,1,.16-1.54c7.68-30.46,45.81-49.43,45.81-49.43l15.11,1.18c8.69,26.85,7.57,43.32,6.18,50.65a5.87,5.87,0,0,1-.16.6C754.16,1628.51,728.5,1629.24,699.52,1625.94Z"/><path class="cls-55" d="M766.62,1627.4a6.53,6.53,0,0,1-4.79,4.84c-17.73,3.73-45.92.73-57.75-.82a5.49,5.49,0,0,1-4.56-5.48C728.5,1629.24,754.16,1628.51,766.62,1627.4Z"/><path class="cls-56" d="M766.68,1553.65l-6.4,30.81a5,5,0,0,1-4.31,4.14,42.81,42.81,0,0,1-9.91-.16,6.34,6.34,0,0,1-5-7.44l4.45-27.35Z"/><path class="cls-57" d="M634.08,1627.09c16.69-.47,25.32-2.43,29.78-4.26,0,1.66,0,3.35-.05,5.1a3.29,3.29,0,0,1-3.15,3.35l-91.63-.59c-2.92,0-4.63-3.41-3.36-6.09C577.68,1625.59,608.28,1627.81,634.08,1627.09Z"/><path class="cls-58" d="M565.67,1624.6a4.13,4.13,0,0,1,.36-.69c8.09-11.31,28.7-33.83,69.43-43.59l19.54-.62s8.7,15.12,8.86,43.13c-4.46,1.83-13.09,3.79-29.78,4.26C608.28,1627.81,577.68,1625.59,565.67,1624.6Z"/><path class="cls-59" d="M658.62,1550.09c-.22,1.46-2.9,23.59-3.93,32.18a4.28,4.28,0,0,1-3.59,3.84,45.18,45.18,0,0,1-13.42-.21,5.78,5.78,0,0,1-4.38-5.8v-34.75Z"/><path class="cls-60" d="M674.29,1146.15S627.17,1325.24,628,1550.61a8.74,8.74,0,0,0,6.92,8.5c5.93,1.24,14.64,2.73,21.85,2.52a8.07,8.07,0,0,0,7.71-6.75c6.61-38.75,44.53-257,66.13-292.48,0,0,14.22,194.42,9.67,295.28a4.8,4.8,0,0,0,4.22,5,81.35,81.35,0,0,0,17.54-.05,6.4,6.4,0,0,0,5.7-5.43c4.71-32.8,31.8-228,30.64-368.62-.06-7.93-21-42.41-21-42.41Z"/><path class="cls-61" d="M621.35,927.12c7.83-14.79,8-18.58,10.13-35.28,58.62-42.3,146.88-20.89,181-16.59a45.56,45.56,0,0,1,28.81,15.47c29.26,33.85,93.46,126.55,17.9,220-9.67-5.37-23.42-14-32.75-23.93,8.36-23.57,9-53.69-8.47-90.62a86.34,86.34,0,0,1-2.24,8.68c-24.15,76.5-25.44,140.17-25.38,154.84a4.85,4.85,0,0,1-3,4.52c-31.79,12.74-93,5.16-113.5,2.1a6.91,6.91,0,0,1-5.78-7.84C678.13,1085.4,615.75,937.7,621.35,927.12Z"/><path class="cls-62" d="M757.57,813.76l6.13,62.58s-35.21,10.61-60.81-7.46l18-56.88Z"/><path class="cls-63" d="M716.72,742.44c-.84.79-35.76,69.35-35.76,69.35l39.57,19.1,42.75-60.06S730.91,729.08,716.72,742.44Z"/><path class="cls-64" d="M745.77,772.49a6.35,6.35,0,0,1-.48,5.55l-19.73,32.9a6.35,6.35,0,0,1-1.08,1.34c-2.35,2.19-10.39,8.55-16.61-.11-5.29-7.38-10.26-14.09-15.59-16.86a6.31,6.31,0,0,0-8.51,2.81c-3.25,6.44-9.55,19.58-13.51,32a6.28,6.28,0,0,0,3.66,7.71c8,3.24,23.85,9.12,37.9,11a6.32,6.32,0,0,0,6-2.53c6-8.28,23.08-31.43,28.9-37.22,5.4-5.39,15.37-3.36,19.87-2.07a6.33,6.33,0,0,0,5-.66c4.56-2.74,12.51-9.58,5.24-21.16a6.32,6.32,0,0,1,1.95-8.58c5.09-3.35,10.61-9.63,5.35-19.81s-14.84-11.23-21.32-10.44a6.55,6.55,0,0,1-6.88-3.82,4.16,4.16,0,0,0-3.25-2.57,6.11,6.11,0,0,1-5-7.19c1.14-5.83.28-13.4-9-18.52-17.07-9.39-32,5.91-35.83,18.82s15.29,22,27.3,23.56C739,757.84,743.82,767.46,745.77,772.49Z"/><path class="cls-65" d="M739.28,821.24s7.59-22.22,17.31-21.4,17.36,10.5,5.32,21.38C746.93,834.76,739.28,821.24,739.28,821.24Z"/><path class="cls-66" d="M821.19,990.4c12.81-35,8.16-77.38,8.11-77.81l-3.52.4c0,.42,4.59,41.94-7.93,76.19Z"/><path class="cls-67" d="M732.37,1257.83a1.76,1.76,0,0,0,1.71-1.33c3.91-15.07,33.17-31.63,33.47-31.8a1.78,1.78,0,0,0-1.74-3.1c-1.26.71-30.88,17.48-35.17,34a1.79,1.79,0,0,0,1.28,2.17A2.3,2.3,0,0,0,732.37,1257.83Z"/><path class="cls-68" d="M631.62,891.17s-38.51,53.92-46.21,123.24,5.13,64.19,30.81,51.36,33.38-95,33.38-95Z"/><path class="cls-69" d="M345.33,1226.24,358,1581.12a5.49,5.49,0,0,1-4.32,5.55L252.9,1608.26a5.47,5.47,0,0,0-3.74,2.91h0a5.46,5.46,0,0,0,4.89,7.91h227a5.47,5.47,0,0,0,5.47-5.47v-.33a5.47,5.47,0,0,0-4.37-5.36L378,1586.61a5.48,5.48,0,0,1-4.37-5.4l2.54-355Z"/><path class="cls-70" d="M340.2,821.09v.08a5.44,5.44,0,0,1-4.45,5.35l-40.23,7.42a5.42,5.42,0,0,0-4.25,3.89L272.38,906a65.35,65.35,0,0,0-1.22,29.69l25.24,132.51a32.41,32.41,0,0,1-5.28,24.66C277,1113,250,1160.92,258.46,1222.42a19.68,19.68,0,0,0,13.07,15.93c25.84,8.9,94.68,26.39,182.12-.36a19.69,19.69,0,0,0,13.81-17.92c1.05-21.82-1.34-67.94-29.94-127.76a32.63,32.63,0,0,1-2.53-20.9l27.55-129.29a65.38,65.38,0,0,0-1.27-32.25l-22.43-75.44a5.45,5.45,0,0,0-4.82-3.87l-27.15-1.94a5.43,5.43,0,0,1-5.05-5.42h0a5.43,5.43,0,0,0-5.21-5.42l-50.75-2.12A5.43,5.43,0,0,0,340.2,821.09Z"/><path class="cls-71" d="M294,828.26s15.41-15.4,25.68-7.7,41.08,87.3,89.86,113,125.82-2.56,182.3-25.67,190,123.24,215.68,249.06c18.69,91.58,17,177.72,14.66,217.82a33.84,33.84,0,0,1-25.58,31c-20.45,5.06-50.64,9.37-76.38.28a96.11,96.11,0,0,0-23.71-5.53,33.78,33.78,0,0,1-30.75-31.26L636,968.61c-.47-6.4-5.37-11.85-11.76-12.34-4.68-.36-10,1.84-14.42,10.64-10.27,20.54-53.92,125.82-148.92,130.95S281.14,990,273.44,977.18s.95-24.56.95-24.56l2.78,14.62S329.93,961.78,294,828.26Z"/><path class="cls-72" d="M689.39,1010.56c15.41,36,18,66.76,25.68,141.22,5.91,57.11,13.32,195.76,16.46,257.29,21.12,4.34,43.73,1.49,60.86-2.39-3.83-52.87-12.28-160.07-23.4-247.2C753.58,1038.81,674,974.62,689.39,1010.56Z"/><path class="cls-73" d="M814.77,1132.52s-11.58-23.1-17.37-18-36.67,12.84-34.74,18,46.32,36.07,52.11,30.87S814.77,1132.52,814.77,1132.52Z"/><path class="cls-74" d="M621.35,963.06c-5.45-5.44-12.84-2.57-12.84-12.84s15.41-33.37,23.11-30.81,9.27,12.82,13.62,32.09S634.19,975.9,621.35,963.06Z"/><path class="cls-75" d="M1173.49,871.55s-12,5.82-14.16,12.5c-1.76,5.37-15,6.06-16.3,16.61a12.1,12.1,0,0,1-10.13,10.64c-13.51,2.07-34.33,9.08-37.66,32.54-2.54,17.91,6.58,24.69,16.16,27a13.58,13.58,0,0,1,10.29,15.68c-1.36,6.81.67,14.69,12.47,20.91,26.45,14,52.87-33.06,52.87-33.06l5.41-82.1Z"/><path class="cls-76" d="M1317.41,852.09s-52.81,83.53-115.6,99.66c0,0,12.23,34.85,21.68,38.84,0,0,77.25-64.46,97.11-126.63Z"/><path class="cls-77" d="M1064.78,1386.35l-1.72,14.07a5.79,5.79,0,0,1-5.09,5.08,89.51,89.51,0,0,1-18.83.3,5,5,0,0,1-4.18-6.46c1.72-5.43,4.88-13.58,9.43-18.38H1060A4.81,4.81,0,0,1,1064.78,1386.35Z"/><path class="cls-78" d="M1187,1221.52l2.63,15.5s-8.82,89.36-10.39,125.11a28,28,0,0,0,4.14,15.91l15.35,24.92-39-23-.78-4.76,6.38-8.77L1157,1266.31a30.76,30.76,0,0,1,3.5-17l8.06-15.15Z"/><path class="cls-79" d="M1201.32,1406.56h-12.44a7.46,7.46,0,0,1-5.94-2.91c-3.88-5-11.92-14.87-15.76-15.13-5.17-.34-4.51,18-4.51,18h-2.9l-3.68-22.85a13.54,13.54,0,0,1,7.1-14.14h0s1.19,8.75,7.6,12.62,26.09,17.72,26.09,17.72a17.56,17.56,0,0,1,5,.13C1205.86,1400.75,1205.31,1406.56,1201.32,1406.56Z"/><path class="cls-80" d="M1133.63,1228.88s-51.69,98-59.9,120.42-11.1,41.06-11.21,42.83c-.17,2.76-3.61,5.41-13.08,5.41-4.89,0-7.28-2-8.45-3.85a5.51,5.51,0,0,1-.21-5.35c3-6,12.47-25.39,16-34.16,4.19-10.47,13.22-57.92,18.17-74.42s10.54-34.39,32.09-50.88C1107,1228.88,1121.83,1214.39,1133.63,1228.88Z"/><path class="cls-81" d="M1166.28,1068.24c13.33-56.49-20.45-88.45-20.45-88.45C1167.14,959.34,1206,950,1206,950s37,27.09,32.66,48.29c-2.58,12.42-26,74.43-26,74.43S1190.89,1083,1166.28,1068.24Z"/><path class="cls-82" d="M1136.72,1096.21c5.42-16.35,29.56-28,29.56-28,24.61,14.78,46.31,4.51,46.31,4.51s4.86,18.6,1.5,35.89S1189.66,1237,1189.66,1237c-33.2,6.73-84.27-6.77-84.27-6.77C1126.54,1192.7,1131.29,1112.55,1136.72,1096.21Z"/><path class="cls-83" d="M1181.75,912.7l-10.84,48.68c-1,4.29,2.87,3.59,7.21,2.77,7.1-1.33,16.25-4.09,19.31-9.62a5.33,5.33,0,0,0,.56-1.83l4.65-33.76a6.08,6.08,0,0,0-3.55-6.38l-9-4A6.07,6.07,0,0,0,1181.75,912.7Z"/><path class="cls-84" d="M1202.51,868.31s11.54,7.81,16.5,27.71-3.1,27-11.36,26.59-20.24-3-30.61-17.27S1187.39,858.77,1202.51,868.31Z"/><path class="cls-85" d="M1187.5,897.32s-4.23-28.5,19.44-24.14l4.79,5s11.58-13-1.24-22.91-30.61-7.33-40.45,10.62-13.41,30.57-5.16,41.72,14.45,1.59,14.45,1.59-3.78-9.66-.64-13.8,7.18,2.41,7.18,2.41Z"/><path class="cls-86" d="M1184.27,899.76s-2.09-14.66-9.58-10.47,2.7,13.7,6.79,16.93Z"/><path class="cls-87" d="M1317.05,869.28c.16,1.73-6.25,2.92-8.29-4.43.56-3.19,1.56-17.15,4-19.32C1325.79,834,1349,821,1349,821a4.75,4.75,0,0,1-.81,6.58l-11.59,7.82c1.21,4,3,7.55,3.17,12.12a13.58,13.58,0,0,1-3.42,9.48c-2.31,2.64-5.42,6-8.22,8.62A13.36,13.36,0,0,1,1317.05,869.28Z"/><path class="cls-88" d="M1323.53,863.66l-2.13-.87c.59-1.44,5.86-14.18,8.53-17a4,4,0,0,0,1.41-2.57,1.63,1.63,0,0,0-.44-1l-9.21,4.92-4.11,6.44-1.94-1.24,4.44-6.95,11.14-6,.6.49a4.34,4.34,0,0,1,1.82,3.12c.08,1.37-.59,2.77-2.05,4.31C1329.58,849.51,1325.09,859.85,1323.53,863.66Z"/><path class="cls-89" d="M1145.83,979.79s-60,123.21-81.73,134c0,0-22.07,2.3-35.57,6.39a3.53,3.53,0,0,0,.14,6.78c9.4,2.57,25,4.71,39.26-3,0,0-7.67,11.5-3.19,16,0,0,10.22-12.14,14.06-16,3.37-3.38,64.82-70.37,90.66-110.77,2.09-3.27.64-13-.81-16.56C1165.31,988.3,1157.91,975.1,1145.83,979.79Z"/></g></svg>